<?xml version="1.0" standalone="no"?>
<!DOCTYPE svg PUBLIC "-//W3C//DTD SVG 20010904//EN"
 "http://www.w3.org/TR/2001/REC-SVG-20010904/DTD/svg10.dtd">
<svg version="1.0" xmlns="http://www.w3.org/2000/svg"
 width="20" height="20" viewBox="0 0 110.000000 110.000000"
 preserveAspectRatio="xMidYMid meet">

<g transform="translate(0.000000,110.000000) scale(0.100000,-0.100000)"
fill="#000000" stroke="none">
<path d="M521 1041 c-7 -5 -125 -120 -262 -257 -248 -248 -269 -275 -236 -302
7 -6 35 -12 62 -14 l50 -3 3 -184 c1 -115 7 -189 13 -198 16 -19 282 -19 297
0 7 8 13 68 14 143 l3 129 83 3 82 3 0 -134 c0 -90 4 -137 12 -145 8 -8 56
-12 149 -12 110 0 139 3 149 15 9 11 13 62 12 183 0 92 2 175 5 185 3 13 15
17 53 17 53 0 82 24 73 60 -3 10 -80 92 -172 182 -368 360 -356 350 -390 329z
m268 -281 c127 -124 231 -228 231 -232 0 -4 -24 -8 -52 -10 l-53 -3 -3 -189
c-1 -119 -7 -194 -13 -203 -12 -14 -171 -19 -203 -7 -13 5 -16 27 -16 134 0
164 3 160 -135 160 -136 0 -135 1 -135 -167 0 -68 -3 -123 -7 -123 -95 -5
-194 -5 -202 0 -7 3 -12 81 -13 200 l-3 195 -52 3 c-29 2 -53 6 -53 10 0 14
455 462 466 460 6 -2 115 -104 243 -228z"/>
</g>
</svg>
