<?xml version="1.0" standalone="no"?>
<!DOCTYPE svg PUBLIC "-//W3C//DTD SVG 20010904//EN"
 "http://www.w3.org/TR/2001/REC-SVG-20010904/DTD/svg10.dtd">
<svg version="1.0" xmlns="http://www.w3.org/2000/svg"
 width="65.000000pt" height="94.000000pt" viewBox="0 0 65.000000 94.000000"
 preserveAspectRatio="xMidYMid meet">

<g transform="translate(0.000000,94.000000) scale(0.100000,-0.100000)"
fill="#000000" stroke="none">
<path d="M245 796 c-107 -48 -131 -182 -45 -260 70 -63 162 -56 224 16 32 37
36 48 36 97 0 43 -6 63 -26 92 -41 60 -124 84 -189 55z m139 -37 c53 -42 71
-112 41 -169 -26 -49 -61 -70 -122 -70 -49 0 -59 4 -88 33 -59 59 -59 135 0
194 29 29 39 33 88 33 40 0 61 -5 81 -21z"/>
<path d="M207 437 c-94 -23 -157 -102 -157 -197 0 -28 7 -64 15 -80 27 -52 65
-64 216 -68 155 -4 209 6 251 48 25 25 28 36 28 90 0 114 -64 191 -174 208
-81 13 -122 13 -179 -1z m251 -49 c48 -32 70 -69 78 -133 9 -60 -9 -99 -54
-121 -53 -26 -300 -26 -353 -1 -62 30 -76 100 -38 182 39 82 90 105 230 102
86 -2 100 -5 137 -29z"/>
</g>
</svg>
